<?xml version="1.0" standalone="no"?>
<!DOCTYPE svg PUBLIC "-//W3C//DTD SVG 20010904//EN"
 "http://www.w3.org/TR/2001/REC-SVG-20010904/DTD/svg10.dtd">
<svg version="1.0" xmlns="http://www.w3.org/2000/svg"
 width="1024.000000pt" height="1024.000000pt" viewBox="0 0 1024.000000 1024.000000"
 preserveAspectRatio="xMidYMid meet">
<metadata>
Created by potrace 1.14, written by Peter Selinger 2001-2017
</metadata>
<g transform="translate(0.000000,1024.000000) scale(0.100000,-0.100000)"
fill="#000000" stroke="none">
<path d="M1669 9606 c-3 -3 -56 -8 -117 -10 -62 -3 -116 -7 -121 -10 -5 -4
-22 -8 -38 -11 -133 -20 -314 -112 -432 -221 -30 -27 -58 -53 -63 -59 -54 -62
-73 -87 -101 -130 -17 -27 -35 -53 -40 -56 -5 -3 -8 -9 -8 -13 1 -3 -10 -31
-24 -61 -14 -31 -25 -62 -25 -70 0 -7 -4 -16 -9 -19 -5 -3 -12 -20 -15 -38 -3
-18 -8 -44 -11 -58 -3 -14 -10 -45 -15 -70 -10 -51 -9 -7313 2 -7345 3 -11 11
-41 17 -67 27 -119 113 -289 190 -378 40 -47 135 -140 142 -140 4 0 14 -6 22
-14 55 -56 221 -135 347 -167 102 -25 276 -39 302 -23 4 3 8 1 8 -4 0 -5 17
-6 40 -2 22 4 40 4 40 0 0 -4 18 -4 40 0 22 4 40 4 40 -1 0 -5 6 -6 13 -3 19
7 157 10 157 3 0 -3 19 -3 43 1 23 3 56 3 74 -1 17 -3 37 -3 43 1 7 4 27 4 45
0 18 -4 38 -4 45 0 6 4 28 4 48 0 21 -3 49 -3 63 1 15 3 32 3 39 -1 7 -4 27
-4 45 0 18 4 38 4 45 0 7 -4 26 -4 44 -1 17 4 45 4 63 1 17 -4 37 -4 43 0 7 4
27 4 45 0 18 -4 38 -4 45 0 6 4 28 4 48 0 21 -3 49 -3 63 1 15 3 32 3 39 -1 7
-4 27 -4 45 0 18 4 38 4 44 1 6 -4 38 -4 71 -1 33 3 60 3 60 0 0 -6 139 -2
157 4 7 3 13 2 13 -3 0 -5 18 -5 40 -1 22 4 40 4 40 0 0 -4 18 -4 40 0 22 4
40 4 40 0 0 -4 18 -4 40 0 22 4 40 4 40 0 0 -4 18 -4 40 0 22 4 40 4 40 0 0
-4 18 -4 40 0 22 4 40 4 40 0 0 -4 18 -4 40 0 23 4 40 3 40 -2 0 -5 5 -6 10
-3 9 5 42 6 155 4 11 0 46 1 78 1 31 1 62 -2 67 -5 6 -3 10 -2 10 3 0 5 19 6
43 3 23 -4 59 -4 79 0 20 3 42 3 49 -1 6 -4 26 -4 45 0 19 4 36 5 39 0 2 -4
25 -4 50 0 25 4 45 4 45 0 0 -4 20 -4 43 0 24 3 52 3 62 0 10 -3 38 -3 62 0
23 4 43 4 43 0 0 -4 20 -4 45 0 25 4 48 4 50 0 3 -4 23 -4 45 0 22 4 40 4 40
0 0 -4 20 -4 45 0 25 4 45 3 45 -2 0 -5 4 -7 8 -4 10 6 43 7 169 6 51 -1 97 2
103 5 5 3 10 2 10 -3 0 -5 17 -6 40 -2 22 4 40 4 40 0 0 -4 18 -4 40 0 22 4
40 4 40 0 0 -4 18 -4 40 0 22 4 40 4 40 0 0 -4 18 -4 40 0 22 4 40 4 40 0 0
-4 18 -4 40 0 22 4 40 4 40 0 0 -4 18 -4 40 0 22 4 40 4 40 -1 0 -5 6 -6 13
-3 19 7 157 10 157 3 0 -3 19 -3 43 1 23 3 56 3 74 -1 17 -3 37 -3 43 1 7 4
27 4 45 0 18 -4 38 -4 45 0 6 4 28 4 48 0 21 -3 49 -3 63 1 15 3 32 3 39 -1 7
-4 27 -4 45 0 18 4 38 4 45 0 7 -4 26 -4 44 -1 17 4 45 4 63 1 17 -4 37 -4 43
0 7 4 27 4 45 0 18 -4 38 -4 45 0 6 4 28 4 48 0 21 -3 49 -3 63 1 15 3 32 3
39 -1 7 -4 27 -4 45 0 18 4 38 4 44 1 6 -4 38 -4 71 -1 33 3 60 2 60 -3 0 -4
4 -6 9 -3 4 3 40 8 78 11 39 3 81 8 94 11 13 3 33 7 44 9 49 9 102 25 130 38
17 8 58 27 92 42 35 16 63 32 63 37 0 4 5 8 10 8 11 0 66 39 114 80 57 48
1752 1746 1798 1801 27 31 48 59 48 63 0 4 11 22 24 39 22 30 85 156 91 181 1
6 5 18 9 27 4 9 16 56 26 105 18 86 19 195 19 2874 0 2753 0 2786 -20 2870
-11 47 -20 91 -21 98 -1 6 -4 12 -8 12 -3 0 -6 8 -7 18 -2 28 -60 147 -106
214 -56 84 -95 127 -187 209 -89 78 -280 173 -391 194 -13 3 -36 7 -50 10 -57
13 -222 20 -237 11 -4 -2 -16 0 -27 4 -11 4 -32 4 -46 0 -15 -4 -32 -4 -38 0
-7 4 -30 4 -52 0 -21 -4 -39 -4 -39 0 0 4 -20 4 -43 0 -24 -3 -52 -3 -62 0
-10 3 -38 3 -62 0 -23 -4 -43 -4 -43 0 0 4 -20 4 -45 0 -25 -4 -48 -4 -50 0
-3 4 -23 4 -45 0 -22 -4 -40 -4 -40 0 0 4 -20 4 -45 0 -25 -4 -45 -3 -45 2 0
5 -4 7 -8 4 -10 -6 -43 -7 -169 -6 -51 1 -97 -2 -103 -5 -5 -3 -10 -2 -10 3 0
5 -17 6 -40 2 -22 -4 -40 -4 -40 0 0 4 -18 4 -40 0 -22 -4 -40 -4 -40 0 0 4
-18 4 -40 0 -22 -4 -40 -4 -40 0 0 4 -18 4 -40 0 -22 -4 -40 -4 -40 0 0 4 -18
4 -40 0 -22 -4 -40 -4 -40 0 0 4 -18 4 -40 0 -22 -4 -40 -4 -40 1 0 5 -6 6
-13 3 -19 -7 -157 -10 -157 -3 0 3 -19 3 -42 -1 -24 -3 -57 -3 -75 1 -17 3
-37 3 -43 -1 -7 -4 -27 -4 -45 0 -18 4 -38 4 -45 0 -6 -4 -28 -4 -48 0 -21 3
-49 3 -63 -1 -15 -3 -32 -3 -39 1 -7 4 -27 4 -45 0 -18 -4 -38 -4 -45 0 -7 4
-26 4 -44 1 -17 -4 -45 -4 -63 -1 -17 4 -37 4 -43 0 -7 -4 -27 -4 -45 0 -18 4
-38 4 -45 0 -6 -4 -28 -4 -48 0 -21 3 -49 3 -63 -1 -15 -3 -32 -3 -39 1 -7 4
-27 4 -45 0 -18 -4 -38 -4 -44 -1 -6 4 -38 4 -71 1 -33 -3 -60 -3 -60 0 0 6
-139 2 -157 -4 -7 -3 -13 -2 -13 3 0 5 -18 5 -40 1 -22 -4 -40 -4 -40 0 0 4
-18 4 -40 0 -22 -4 -40 -4 -40 0 0 4 -18 4 -40 0 -22 -4 -40 -4 -40 0 0 4 -18
4 -40 0 -22 -4 -40 -4 -40 0 0 4 -18 4 -40 0 -22 -4 -40 -4 -40 0 0 4 -18 4
-40 0 -23 -4 -40 -3 -40 2 0 5 -5 6 -10 3 -9 -5 -42 -6 -155 -4 -11 0 -46 -1
-78 -1 -31 -1 -62 2 -67 5 -6 3 -10 2 -10 -3 0 -5 -19 -6 -42 -3 -24 4 -60 4
-80 0 -20 -3 -42 -3 -49 1 -6 4 -26 4 -45 0 -19 -4 -36 -5 -39 0 -2 4 -25 4
-50 0 -25 -4 -45 -4 -45 0 0 4 -20 4 -43 0 -24 -3 -52 -3 -62 0 -10 3 -38 3
-62 0 -23 -4 -43 -4 -43 0 0 4 -20 4 -45 0 -25 -4 -48 -4 -50 0 -3 4 -23 4
-45 0 -22 -4 -40 -4 -40 0 0 4 -20 4 -45 0 -25 -4 -45 -3 -45 2 0 5 -4 7 -8 4
-10 -6 -43 -7 -169 -6 -51 1 -97 -2 -103 -5 -5 -3 -10 -2 -10 3 0 5 -17 6 -40
2 -22 -4 -40 -4 -40 0 0 4 -18 4 -40 0 -22 -4 -40 -4 -40 0 0 4 -18 4 -40 0
-22 -4 -40 -4 -40 0 0 4 -18 4 -40 0 -22 -4 -40 -4 -40 0 0 4 -18 4 -40 0 -22
-4 -40 -4 -40 0 0 4 -18 4 -40 0 -22 -4 -40 -4 -40 1 0 5 -6 6 -13 3 -19 -7
-157 -10 -157 -3 0 3 -19 3 -42 -1 -24 -3 -57 -3 -75 1 -17 3 -37 3 -43 -1 -7
-4 -27 -4 -45 0 -18 4 -38 4 -45 0 -6 -4 -28 -4 -48 0 -21 3 -49 3 -63 -1 -15
-3 -32 -3 -39 1 -7 4 -27 4 -45 0 -18 -4 -38 -4 -45 0 -6 4 -26 4 -43 0 -18
-3 -46 -3 -63 1 -18 3 -37 3 -44 -1 -7 -4 -27 -4 -45 0 -18 4 -38 4 -45 0 -6
-4 -28 -4 -48 0 -21 3 -49 3 -63 -1 -15 -3 -32 -3 -39 1 -7 4 -27 4 -45 0 -18
-4 -38 -4 -44 -1 -6 4 -38 4 -71 1 -33 -3 -60 -3 -60 0 0 6 -139 2 -157 -4 -7
-3 -13 -2 -13 3 0 5 -18 5 -40 1 -22 -4 -40 -4 -40 0 0 4 -18 4 -40 0 -22 -4
-41 -3 -42 2 -2 5 -6 7 -9 4z m61 -968 c0 -4 13 -3 29 2 15 4 34 4 42 0 7 -5
20 -5 30 0 9 5 19 7 22 4 8 -8 106 -9 113 -1 3 3 19 1 35 -3 16 -5 31 -5 34 0
3 4 20 4 39 0 19 -4 40 -4 47 0 7 5 22 4 35 0 12 -5 25 -6 28 -3 8 8 112 6
126 -2 5 -3 10 -2 10 4 0 6 11 6 30 1 17 -5 30 -5 30 0 0 5 13 5 30 0 17 -5
30 -5 30 0 0 5 13 5 30 0 17 -5 30 -5 30 0 0 5 13 5 30 0 17 -5 30 -5 30 0 0
5 13 5 30 0 17 -5 30 -5 30 0 0 5 13 5 30 0 17 -5 30 -5 30 0 0 5 13 5 30 0
17 -5 30 -5 30 0 0 5 13 5 30 0 19 -5 30 -5 30 1 0 6 4 7 10 4 13 -8 108 -11
115 -3 4 3 20 2 36 -2 16 -5 31 -5 34 0 3 4 20 4 39 0 19 -4 40 -4 47 0 7 5
22 4 35 0 12 -5 25 -6 28 -3 8 8 112 6 126 -2 5 -3 10 -3 10 2 0 4 29 8 65 8
36 0 65 -3 65 -7 0 -4 13 -3 30 2 17 5 30 5 30 0 0 -5 13 -5 30 0 17 5 30 5
30 0 0 -5 13 -5 29 0 15 4 34 4 42 0 7 -5 20 -5 29 0 9 5 22 5 30 0 8 -5 21
-5 30 0 9 5 22 5 30 0 8 -5 21 -5 30 0 9 5 22 5 28 1 7 -4 35 -5 62 -1 27 4
55 3 62 -1 6 -4 19 -4 28 1 9 5 22 5 30 0 8 -5 21 -5 30 0 9 5 22 5 30 0 8 -5
21 -5 30 0 9 5 22 5 29 0 8 -4 27 -4 42 0 16 5 29 5 29 0 0 -5 13 -5 30 0 17
5 30 5 30 0 0 -5 13 -5 30 0 16 5 30 5 30 1 0 -5 15 -5 33 -2 17 4 47 4 65 0
17 -4 32 -3 32 1 0 5 12 5 27 1 16 -4 44 -4 65 -1 20 4 42 4 49 -1 7 -4 20 -4
29 1 9 5 22 5 30 0 8 -5 21 -5 30 0 9 5 22 5 30 0 8 -5 21 -5 30 0 9 5 22 5
29 0 8 -4 27 -4 42 0 16 5 29 5 29 0 0 -5 13 -5 30 0 17 5 30 5 30 0 0 -5 13
-5 30 0 17 5 30 5 30 1 0 -5 15 -5 33 -2 17 4 47 4 65 0 18 -4 32 -3 32 3 0 5
4 6 10 3 13 -8 108 -11 115 -3 4 3 20 2 36 -2 16 -5 31 -5 34 0 3 4 20 4 39 0
19 -4 40 -4 47 0 7 5 22 4 35 0 12 -5 25 -6 28 -3 8 8 112 6 126 -2 5 -3 10
-2 10 4 0 6 11 6 30 1 17 -5 30 -5 30 0 0 5 13 5 30 0 17 -5 30 -5 30 0 0 5
13 5 30 0 17 -5 30 -5 30 0 0 5 13 5 30 0 17 -5 30 -5 30 0 0 5 13 5 30 0 17
-5 30 -5 30 0 0 5 13 5 30 0 17 -5 30 -5 30 0 0 5 13 5 30 0 17 -5 30 -5 30 0
0 5 13 5 30 0 19 -5 30 -5 30 1 0 6 4 7 10 4 13 -8 108 -11 115 -3 4 3 20 2
36 -2 16 -5 31 -5 34 0 3 4 20 4 39 0 19 -4 40 -4 47 0 7 5 22 5 34 0 12 -5
27 -5 34 -1 7 5 30 5 52 1 22 -4 42 -4 44 1 3 4 19 4 35 -1 16 -5 32 -5 35 0
3 4 20 4 39 0 19 -4 40 -4 47 0 7 5 22 4 35 0 12 -5 25 -6 28 -3 8 8 112 6
126 -2 5 -3 10 -2 10 4 0 6 11 6 30 1 17 -5 30 -5 30 0 0 5 13 5 30 0 17 -5
30 -5 30 0 0 5 13 5 30 0 17 -5 30 -5 30 0 0 5 13 5 30 0 17 -5 30 -5 30 0 0
5 13 5 30 0 17 -5 30 -5 30 0 0 5 13 5 30 0 17 -5 30 -5 30 0 0 5 13 5 30 0
17 -5 30 -5 30 0 0 5 13 5 30 0 19 -5 30 -5 30 1 0 6 4 7 10 4 13 -8 108 -11
115 -3 4 3 20 2 36 -2 16 -5 31 -5 34 0 3 4 20 4 39 0 19 -4 40 -4 47 0 7 5
22 4 35 0 12 -5 24 -6 28 -3 7 7 115 7 123 0 3 -4 13 -2 22 3 10 5 23 5 31 0
8 -5 21 -5 30 0 9 5 22 5 30 0 8 -5 21 -5 30 0 9 5 22 5 29 0 8 -4 27 -4 42 0
16 5 29 5 29 0 0 -5 13 -5 30 0 17 5 30 5 30 0 0 -5 13 -5 30 0 16 5 30 5 30
1 0 -5 15 -5 33 -2 17 4 47 4 65 0 17 -4 32 -3 32 1 0 5 12 5 27 1 16 -4 44
-4 65 -1 20 4 42 4 49 -1 7 -4 20 -4 29 1 9 5 22 5 30 0 8 -5 18 -6 22 -3 13
7 141 7 166 -1 18 -6 20 -11 12 -32 -6 -14 -6 -24 0 -24 5 0 5 -12 0 -30 -5
-17 -5 -30 0 -30 5 0 5 -13 0 -28 -4 -16 -4 -35 1 -43 4 -8 4 -21 -1 -29 -4
-7 -4 -24 1 -37 5 -12 5 -23 1 -23 -4 0 -7 -22 -7 -50 0 -27 3 -50 7 -50 4 0
3 -13 -2 -30 -5 -16 -6 -30 -2 -30 8 0 7 -68 -1 -76 -3 -3 -2 -17 3 -30 6 -14
6 -24 0 -24 -5 0 -5 -12 0 -30 5 -17 5 -30 0 -30 -5 0 -5 -13 0 -30 5 -17 5
-30 0 -30 -5 0 -5 -13 0 -30 5 -17 5 -30 0 -30 -5 0 -5 -12 -1 -28 5 -15 5
-37 0 -49 -5 -13 -4 -25 1 -28 6 -4 7 -13 1 -24 -5 -9 -6 -23 -2 -29 4 -7 4
-35 1 -62 -4 -28 -3 -50 1 -50 4 0 4 -13 -1 -30 -5 -16 -6 -30 -2 -30 8 0 7
-68 -1 -76 -3 -3 -2 -17 3 -30 6 -14 6 -24 0 -24 -5 0 -5 -12 0 -30 5 -17 5
-30 0 -30 -5 0 -5 -13 0 -30 5 -17 5 -30 0 -30 -5 0 -5 -13 0 -30 5 -17 5 -30
0 -30 -5 0 -5 -12 -1 -28 5 -15 5 -37 0 -49 -5 -13 -4 -25 1 -28 6 -4 7 -13 1
-24 -5 -9 -6 -22 -3 -28 9 -14 7 -77 -2 -92 -4 -5 -2 -12 3 -16 7 -3 7 -15 1
-30 -5 -14 -5 -27 0 -30 5 -3 5 -18 0 -34 -4 -15 -4 -34 0 -42 5 -7 5 -20 0
-28 -4 -8 -4 -25 1 -38 5 -13 5 -23 1 -23 -4 0 -6 -21 -4 -47 1 -27 3 -54 2
-60 0 -7 0 -20 0 -28 0 -8 0 -22 0 -30 0 -8 0 -22 0 -30 0 -8 0 -22 0 -30 0
-8 0 -22 0 -30 0 -8 0 -22 0 -30 0 -8 0 -22 0 -30 0 -8 0 -22 0 -30 0 -8 0
-22 0 -30 0 -8 0 -22 0 -30 0 -8 0 -22 0 -30 0 -8 0 -22 0 -30 0 -8 0 -22 0
-30 0 -8 0 -22 0 -30 0 -8 0 -22 0 -30 0 -8 0 -22 0 -30 0 -8 0 -21 0 -27 0
-7 1 -29 2 -48 1 -20 -1 -43 -5 -52 -3 -10 -2 -20 3 -23 6 -3 6 -15 0 -30 -5
-14 -5 -27 0 -30 5 -3 5 -18 0 -34 -4 -15 -4 -34 0 -42 5 -7 5 -20 0 -28 -4
-8 -4 -25 1 -38 5 -13 5 -23 1 -23 -4 0 -7 -22 -7 -50 0 -27 3 -50 7 -50 4 0
3 -13 -2 -30 -5 -16 -6 -30 -2 -30 8 0 7 -68 -1 -76 -3 -3 -2 -17 3 -30 6 -14
6 -24 0 -24 -5 0 -5 -12 0 -30 5 -17 5 -30 0 -30 -5 0 -5 -13 0 -30 5 -17 5
-30 0 -30 -5 0 -5 -13 0 -30 5 -17 5 -30 0 -30 -5 0 -5 -12 -1 -28 5 -15 5
-37 0 -49 -5 -13 -4 -25 1 -28 6 -4 7 -13 1 -24 -5 -9 -6 -23 -2 -29 4 -7 4
-35 1 -62 -4 -28 -3 -50 1 -50 4 0 4 -13 -1 -30 -5 -16 -6 -30 -2 -30 8 0 7
-68 -1 -76 -3 -3 -2 -17 3 -30 6 -14 6 -24 0 -24 -5 0 -5 -12 0 -30 5 -17 5
-30 0 -30 -5 0 -5 -13 0 -30 5 -17 5 -30 0 -30 -5 0 -5 -13 0 -30 5 -17 5 -30
0 -30 -5 0 -5 -12 -1 -28 5 -15 5 -37 0 -49 -5 -13 -4 -25 1 -28 6 -4 7 -13 1
-24 -5 -9 -6 -22 -3 -28 9 -14 7 -77 -2 -92 -4 -5 -2 -12 3 -16 7 -3 7 -15 1
-30 -5 -14 -5 -27 0 -30 5 -3 5 -18 0 -34 -4 -15 -4 -34 0 -42 5 -7 5 -20 0
-28 -5 -9 -4 -23 1 -33 5 -10 5 -19 0 -22 -5 -3 -7 -16 -4 -27 4 -16 2 -20 -8
-17 -8 3 -22 1 -31 -3 -10 -6 -19 -5 -23 1 -4 6 -15 6 -30 0 -14 -5 -25 -6
-25 -2 0 4 -16 7 -35 7 -19 0 -35 -3 -35 -7 0 -4 -11 -3 -25 2 -15 6 -26 6
-30 -1 -4 -5 -13 -6 -21 -1 -8 5 -37 5 -64 2 -28 -4 -50 -3 -50 1 0 4 -14 4
-30 -1 -16 -5 -30 -6 -30 -2 0 8 -53 8 -66 -1 -6 -3 -16 -2 -24 3 -8 5 -21 5
-31 -1 -11 -6 -20 -5 -24 1 -3 5 -15 6 -28 1 -12 -5 -34 -5 -49 0 -16 4 -28 4
-28 -1 0 -6 -10 -6 -25 0 -15 6 -26 6 -30 -1 -4 -5 -11 -7 -16 -3 -13 8 -79
11 -79 4 0 -6 -101 -2 -107 4 -3 3 -16 1 -29 -4 -14 -6 -26 -6 -29 0 -3 6 -15
6 -30 0 -14 -5 -25 -6 -25 -1 0 5 -12 6 -27 2 -16 -4 -40 -4 -55 0 -16 4 -28
4 -28 -1 0 -6 -10 -6 -25 0 -15 6 -26 6 -30 -1 -4 -6 -13 -6 -23 0 -10 6 -23
6 -34 0 -10 -6 -19 -5 -23 1 -4 6 -15 6 -30 0 -16 -6 -25 -6 -25 0 0 5 -6 7
-14 4 -18 -7 -106 -10 -106 -4 0 3 -13 5 -30 5 -16 0 -30 -3 -30 -7 0 -4 -10
-4 -22 0 -26 9 -60 8 -76 -2 -6 -3 -13 -2 -16 3 -4 5 -18 6 -34 2 -15 -4 -42
-4 -60 0 -17 4 -35 3 -38 -2 -3 -6 -12 -6 -22 0 -10 6 -23 6 -34 0 -10 -6 -19
-5 -23 1 -4 6 -11 8 -16 4 -15 -9 -80 -11 -85 -2 -3 4 -10 5 -17 3 -24 -9
-125 -10 -120 -1 4 5 1 6 -4 3 -6 -4 -28 -9 -49 -13 -114 -18 -243 -98 -311
-192 -21 -30 -37 -58 -35 -63 1 -5 -2 -9 -7 -9 -15 0 -44 -112 -47 -178 -1
-35 -5 -66 -7 -69 -3 -3 -2 -16 3 -29 6 -14 6 -24 0 -24 -5 0 -5 -12 0 -30 5
-17 5 -30 0 -30 -5 0 -5 -13 0 -30 5 -17 5 -30 0 -30 -5 0 -5 -13 0 -30 5 -17
5 -30 0 -30 -5 0 -5 -12 -1 -28 5 -15 5 -37 0 -49 -5 -13 -4 -25 1 -28 6 -4 7
-13 1 -24 -5 -9 -6 -22 -3 -28 9 -14 7 -77 -2 -92 -4 -5 -2 -12 3 -16 7 -3 7
-15 1 -30 -5 -14 -5 -27 0 -30 5 -3 5 -18 0 -34 -4 -15 -4 -34 0 -42 5 -7 5
-20 0 -28 -4 -8 -4 -25 1 -38 5 -13 5 -23 1 -23 -4 0 -6 -21 -4 -47 1 -27 3
-54 2 -60 0 -7 0 -20 0 -28 0 -8 0 -22 0 -30 0 -8 0 -22 0 -30 0 -8 0 -22 0
-30 0 -8 0 -22 0 -30 0 -8 0 -22 0 -30 0 -8 0 -22 0 -30 0 -8 0 -22 0 -30 0
-8 0 -22 0 -30 0 -8 0 -22 0 -30 0 -8 0 -22 0 -30 0 -8 0 -22 0 -30 0 -8 0
-22 0 -30 0 -8 0 -22 0 -30 0 -8 0 -22 0 -30 0 -8 0 -22 0 -30 0 -8 0 -21 0
-27 0 -7 1 -29 2 -48 1 -20 -1 -43 -5 -52 -3 -10 -2 -20 3 -23 6 -3 6 -15 0
-30 -5 -14 -5 -27 0 -30 5 -3 5 -18 0 -34 -4 -15 -4 -34 0 -42 5 -7 5 -20 0
-28 -4 -8 -4 -25 1 -38 5 -13 5 -23 1 -23 -4 0 -7 -22 -7 -50 0 -27 3 -50 7
-50 4 0 3 -13 -2 -30 -5 -16 -6 -30 -2 -30 8 0 7 -68 -1 -76 -3 -3 -2 -17 3
-30 6 -14 6 -24 0 -24 -5 0 -5 -13 0 -31 11 -36 5 -39 -68 -36 -28 1 -52 -1
-52 -5 0 -3 -12 -3 -27 1 -16 4 -43 4 -60 0 -18 -4 -33 -4 -33 0 0 3 -21 5
-47 4 -88 -5 -135 -5 -140 0 -2 3 -18 1 -34 -3 -16 -5 -29 -6 -29 -2 0 4 -53
6 -117 4 -145 -3 -127 -3 -193 -2 -85 0 -89 0 -102 1 -7 0 -49 1 -93 0 -44 0
-88 0 -97 0 -10 0 -39 -1 -64 -1 -25 -1 -48 1 -51 4 -3 2 -15 1 -28 -4 -13 -5
-26 -6 -29 -3 -5 6 -66 7 -83 3 -5 -1 -12 -1 -18 0 -5 1 -30 1 -55 1 -57 -1
-70 -1 -122 0 -24 0 -72 0 -108 0 -36 0 -73 0 -82 0 -10 0 -39 -1 -64 -1 -25
-1 -48 1 -51 4 -3 2 -15 1 -28 -4 -13 -5 -26 -6 -29 -3 -5 6 -66 7 -83 3 -5
-1 -12 -1 -18 0 -5 1 -30 1 -55 1 -58 -1 -66 -1 -187 0 -57 0 -107 -2 -113 -6
-5 -3 -10 -3 -10 2 0 7 -83 9 -100 2 -3 -1 -9 0 -15 1 -5 1 -34 2 -62 1 -66
-2 -69 -2 -118 0 -22 0 -44 0 -50 -1 -5 -1 -14 -1 -20 0 -8 1 -131 1 -235 0
-8 -1 -40 -1 -70 0 -30 0 -64 0 -75 0 -11 -1 -59 0 -107 0 -48 1 -92 -1 -98
-5 -5 -3 -10 -3 -10 2 0 7 -65 9 -95 3 -6 -2 -14 -1 -20 0 -10 2 -37 2 -133
-1 -24 0 -46 2 -49 4 -2 3 -18 1 -34 -3 -16 -5 -29 -6 -29 -2 0 4 -53 6 -117
4 -145 -3 -127 -3 -193 -2 -30 0 -64 0 -75 0 -11 -1 -59 0 -107 0 -48 1 -92
-1 -98 -5 -5 -3 -10 -3 -10 2 0 9 -87 9 -96 0 -3 -3 -13 -3 -21 0 -8 3 -27 6
-42 7 -18 1 -26 6 -25 19 1 9 -2 17 -6 17 -5 0 -5 13 0 29 4 15 4 34 0 42 -5
7 -5 20 0 29 5 9 5 22 0 30 -5 8 -5 21 0 30 5 9 5 22 0 30 -5 8 -5 21 0 30 5
9 5 22 0 30 -5 8 -5 21 0 30 5 9 5 22 0 30 -5 8 -5 21 0 30 5 9 5 22 0 30 -5
8 -5 21 0 30 5 9 5 22 0 30 -5 8 -5 21 0 30 5 9 5 22 0 30 -5 8 -5 21 0 30 5
9 5 21 2 27 -9 14 -7 77 2 92 4 5 2 12 -3 16 -7 3 -7 15 -1 30 5 14 5 27 0 30
-5 3 -5 18 0 34 4 15 4 34 0 42 -5 7 -5 20 0 28 4 8 4 25 -1 38 -5 13 -5 23
-1 23 8 0 7 84 -1 97 -3 5 -2 15 3 23 5 8 5 21 0 30 -5 9 -5 22 0 29 4 8 4 27
0 42 -5 16 -5 29 0 29 5 0 5 13 0 30 -5 17 -5 30 0 30 5 0 5 13 0 30 -5 17 -5
30 0 30 5 0 5 13 0 30 -5 17 -5 30 0 30 5 0 5 13 0 30 -5 17 -6 30 -2 30 4 0
7 16 7 35 0 19 -3 35 -7 35 -4 0 -3 14 2 30 5 17 5 30 1 30 -4 0 -5 22 -1 50
3 27 3 55 -1 62 -4 7 -4 19 1 27 4 9 4 23 0 31 -5 9 -5 22 0 29 4 8 4 27 0 42
-5 16 -5 29 0 29 5 0 5 13 0 30 -5 17 -5 30 0 30 5 0 5 13 0 30 -5 17 -5 30 0
30 5 0 5 13 0 30 -5 17 -5 30 0 30 5 0 5 13 0 30 -5 17 -6 30 -2 30 4 0 7 16
7 35 0 19 -3 35 -7 35 -4 0 -3 14 2 30 5 17 5 30 1 30 -4 0 -4 27 -1 60 3 33
3 60 -1 60 -4 0 -4 14 1 30 5 17 6 30 2 30 -8 0 -7 68 1 76 3 3 2 17 -3 30 -6
14 -6 24 0 24 5 0 5 12 0 30 -5 17 -5 30 0 30 5 0 5 13 0 30 -5 17 -5 30 0 30
5 0 5 13 0 30 -5 17 -5 30 0 30 5 0 5 12 1 28 -5 15 -5 37 0 49 5 13 4 25 -1
28 -6 4 -7 13 -1 24 5 9 6 22 3 28 -9 14 -7 77 2 92 4 5 2 12 -3 16 -7 3 -7
15 -1 30 5 14 5 27 0 30 -5 3 -5 18 0 34 4 15 4 34 0 42 -5 7 -5 20 0 28 4 8
4 25 -1 38 -5 13 -5 23 -1 23 4 0 6 21 4 47 -1 27 -3 54 -2 61 0 6 0 19 0 27
0 8 0 22 0 30 0 8 0 22 0 30 0 8 0 22 0 30 0 8 0 22 0 30 0 8 0 22 0 30 0 8 0
22 0 30 0 8 0 22 0 30 0 8 0 22 0 30 0 8 0 22 0 30 0 8 0 22 0 30 0 8 0 22 0
30 0 8 0 22 0 30 0 8 0 22 0 30 0 8 0 22 0 30 0 8 0 22 0 30 0 8 0 21 0 28 0
6 -1 28 -2 47 -1 20 1 43 5 52 3 10 2 20 -3 23 -6 3 -6 15 0 30 5 14 5 27 0
30 -5 3 -5 18 0 34 4 15 4 34 0 42 -5 7 -5 20 0 28 4 8 4 25 -1 38 -5 13 -5
23 -1 23 4 0 7 23 7 50 0 28 -3 50 -7 50 -4 0 -3 14 2 30 5 17 6 30 2 30 -8 0
-7 68 1 76 3 3 2 17 -3 30 -6 14 -6 24 0 24 5 0 5 12 0 30 -5 17 -5 30 0 30 5
0 5 13 0 30 -5 17 -5 30 0 30 5 0 5 13 0 30 -5 17 -5 30 0 30 5 0 5 12 1 28
-5 15 -5 37 0 49 5 13 4 25 -1 28 -6 4 -7 13 -1 24 5 9 6 23 2 30 -5 7 -5 30
-1 51 4 21 4 44 -1 51 -4 7 -4 20 1 28 4 9 4 23 0 31 -5 9 -5 22 0 29 4 8 4
27 0 42 -5 16 -5 29 0 29 5 0 5 13 0 30 -5 17 -5 30 0 30 5 0 5 13 0 30 -5 17
-5 30 0 30 5 0 5 13 0 30 -5 17 -5 30 0 30 5 0 5 13 0 30 -5 17 -6 30 -2 30 4
0 7 16 7 35 0 19 -3 35 -7 35 -4 0 -3 14 2 30 5 17 5 30 1 30 -4 0 -5 22 -1
50 3 27 3 55 -1 62 -4 7 -4 19 1 27 4 9 4 23 0 31 -5 9 -5 22 0 29 4 8 4 27 0
42 -5 16 -5 29 0 29 5 0 5 13 0 30 -5 17 -5 30 0 30 5 0 5 13 0 30 -5 17 -5
30 0 30 5 0 5 13 0 30 -5 17 -5 30 0 30 5 0 5 13 0 30 -5 17 -6 30 -2 30 4 0
7 16 7 35 0 19 -3 35 -7 35 -4 0 -3 14 2 30 5 17 6 30 2 30 -8 0 -6 85 2 99 4
5 2 12 -3 16 -7 3 -7 15 -1 30 5 14 5 27 0 30 -5 3 -5 18 0 34 4 15 4 34 0 42
-5 7 -5 20 0 28 4 8 4 25 -1 38 -5 13 -5 23 -1 23 4 0 6 21 4 47 -1 27 -3 54
-2 61 0 6 0 19 0 27 0 8 0 22 0 30 0 8 0 22 0 30 0 8 0 22 0 30 0 8 0 22 0 30
0 8 0 22 0 30 0 8 0 22 0 30 0 8 0 22 0 30 0 8 0 22 0 30 0 8 0 22 0 30 0 8 0
22 0 30 0 8 0 22 0 30 0 8 0 22 0 30 0 8 0 22 0 30 0 8 0 21 0 28 0 6 0 30 -1
52 -2 85 -6 80 66 80 36 0 65 -3 65 -7z m5370 -5440 c0 -4 11 -3 25 2 16 6 25
6 25 0 0 -6 9 -6 25 0 15 6 26 6 30 -1 4 -6 13 -6 23 0 9 5 26 5 40 0 13 -5
21 -6 19 -1 -3 4 8 7 24 7 16 0 29 -3 29 -7 0 -4 11 -3 25 2 15 6 26 6 30 -1
4 -6 13 -6 23 0 10 6 23 6 34 0 10 -6 19 -5 23 1 4 6 15 6 31 0 14 -6 23 -7
21 -2 -3 4 8 7 24 7 16 0 29 -3 29 -7 0 -4 11 -3 25 2 13 5 27 6 29 1 3 -4 26
-5 51 -1 26 4 48 3 51 -2 4 -6 10 -6 16 0 7 7 19 7 34 2 13 -5 24 -6 24 -2 0
8 52 8 66 -1 6 -3 16 -2 24 3 8 5 21 5 31 -1 11 -6 20 -5 24 1 4 6 15 6 31 0
14 -6 23 -7 21 -2 -3 4 8 7 24 7 16 0 29 -3 29 -7 0 -4 11 -3 25 2 15 6 26 6
30 -1 4 -6 13 -6 23 0 10 6 23 6 34 0 10 -6 19 -5 23 1 3 6 15 6 30 0 15 -6
27 -6 30 0 3 6 15 6 30 0 14 -5 25 -6 25 -2 0 8 85 6 108 -3 6 -2 12 -1 12 3
0 6 95 8 110 2 3 -1 9 -2 14 -1 6 1 -332 -339 -750 -757 -644 -645 -760 -756
-765 -738 -3 11 -2 29 3 39 6 11 5 17 -2 17 -8 0 -8 6 0 20 8 14 8 20 0 20 -8
0 -8 6 0 20 8 14 8 20 0 20 -8 0 -8 6 0 20 8 14 8 20 0 20 -7 0 -8 6 -1 18 13
25 13 25 2 55 -6 16 -7 27 -1 27 6 0 6 9 0 25 -6 15 -6 26 1 30 6 4 6 13 0 23
-6 10 -6 23 0 34 6 12 6 18 0 18 -6 0 -6 11 -1 30 5 19 5 30 -1 30 -6 0 -6 7
1 19 7 13 7 22 0 26 -7 4 -7 12 0 25 7 13 7 21 0 25 -6 4 -7 12 -1 23 5 9 5
26 0 39 -5 13 -4 25 1 28 7 4 6 13 0 25 -6 12 -7 21 0 25 6 4 6 15 0 30 -6 16
-6 25 0 25 6 0 6 9 0 25 -6 15 -6 26 0 30 6 4 7 13 1 23 -6 11 -6 24 0 35 7
11 7 17 0 17 -6 0 -6 11 -1 30 5 19 5 30 -1 30 -6 0 -6 7 1 19 7 13 7 22 0 26
-7 4 -7 12 0 25 7 13 7 21 0 25 -6 4 -7 12 -1 23 5 9 5 26 0 39 -5 13 -4 25 1
28 7 4 6 13 0 25 -6 12 -7 21 0 25 6 4 6 15 0 30 -6 16 -6 25 0 25 6 0 6 9 0
25 -6 15 -6 26 1 30 6 4 6 13 0 23 -6 10 -6 23 0 34 6 12 6 18 0 18 -6 0 -6
11 -1 30 5 19 5 30 -1 30 -6 0 -6 7 1 19 6 13 7 22 0 26 -18 11 0 30 30 30 17
0 30 -3 30 -7z"/>
</g>
</svg>
